# xmcd
#
# Track frame offsets: 
#        150
#        15912
#        30777
#        42156
#        60710
#        79078
#        97561
#        118540
#        133707
#        150564
#        163785
#        176242
#        189469
#        203734
#        222318
#        243791
#        260381
#        281759
#
# Disc length: 3972 seconds
#
# Revision: 0
# Processed by: cddbd v1.5.2PL0 Copyright (c) Steve Scherf et al.
# Submitted via: ExactAudioCopy v1.1
#
DISCID=e30f8212
DTITLE=Guido Belcanto - 30 Jaar - CD 3 - Vergeten Parels, Weeskinderen
DTITLE=En Rariteiten
DYEAR=2019
DGENRE=Chanson
TTITLE0=Dirk En Guido - Bottle Up And Go
TTITLE1=Dirk En Guido - I'm Sad And I'm Lonely
TTITLE2=Guido Belcanto Met Derek - Le Métèque
TTITLE3=Guido Belcanto Met Derek - La Chanson De Prévert
TTITLE4=Guido Belcanto Met Esther Lybeert - Toverdrank
TTITLE5=Elefantino
TTITLE6=Guido Belcanto Met The Scabs - De Fles
TTITLE7=Guido Belcanto Met The Scabs - Country Honk - Honky Tonk Woman
TTITLE8=Het Levende Lijk
TTITLE9=De Egoïst
TTITLE10=Wijn Drink Ik Liefst Heel Alleen
TTITLE11=Ik Ben Soldaat
TTITLE12=Guido Belcanto Met Hei Pasoep - Ik En Mijn Broer En Giuseppe
TTITLE13=Guido Belcanto Met De Vrolijke Sukkelaars - Zen Waai Misschie
TTITLE13=n Minder Waard
TTITLE14=Meneer De Psychiater
TTITLE15=Het Meisje Zonder Naam
TTITLE16=Zondereigen
TTITLE17=Vive Le Tour De France
EXTD=
EXTT0=
EXTT1=
EXTT2=
EXTT3=
EXTT4=
EXTT5=
EXTT6=
EXTT7=
EXTT8=
EXTT9=
EXTT10=
EXTT11=
EXTT12=
EXTT13=
EXTT14=
EXTT15=
EXTT16=
EXTT17=
PLAYORDER=
